<?xml version="1.0" encoding="UTF-8" ?>
<!DOCTYPE svg PUBLIC "-//W3C//DTD SVG 1.1//EN" "http://www.w3.org/Graphics/SVG/1.1/DTD/svg11.dtd">
<svg width="353pt" height="150pt" viewBox="0 0 353 150" version="1.1" xmlns="http://www.w3.org/2000/svg">
<path fill="#ffffff" d=" M 0.00 0.00 L 353.00 0.00 L 353.00 150.00 L 0.00 150.00 L 0.00 0.00 Z" />
<path fill="#a6a6a6" d=" M 16.07 28.14 C 24.01 27.88 31.96 27.91 39.91 28.09 C 41.45 44.39 42.64 60.73 44.07 77.04 C 44.55 81.77 44.47 86.57 45.60 91.22 C 47.46 70.17 49.71 49.15 52.42 28.19 C 60.60 27.82 68.80 27.93 76.99 28.11 C 79.13 49.83 80.21 71.65 82.42 93.36 C 83.53 87.98 83.58 82.47 84.19 77.03 C 85.96 60.71 87.56 44.37 90.08 28.15 C 98.02 27.86 105.98 27.89 113.93 28.14 C 110.30 59.72 106.40 91.26 102.71 122.84 C 92.61 123.11 82.49 123.18 72.39 122.79 C 70.58 111.49 68.92 100.17 67.10 88.87 C 66.25 83.85 65.85 78.74 64.38 73.84 C 61.85 90.12 59.74 106.47 57.51 122.80 C 47.47 123.17 37.40 123.12 27.36 122.83 C 23.63 91.26 19.72 59.71 16.07 28.14 Z" />
<path fill="#a6a6a6" d=" M 179.08 28.07 C 187.02 27.92 194.98 27.92 202.92 28.08 C 203.19 35.44 202.85 42.81 203.03 50.17 C 206.46 47.77 209.85 44.85 214.15 44.23 C 219.94 43.37 226.70 44.76 230.37 49.67 C 233.04 53.18 232.92 57.80 233.02 61.98 C 232.99 75.33 233.01 88.67 233.00 102.01 C 232.87 106.70 232.96 111.63 230.97 115.99 C 227.37 123.15 217.66 126.05 210.58 122.51 C 207.93 121.13 205.70 119.12 203.39 117.25 C 202.86 119.13 202.33 121.01 201.80 122.89 C 194.23 123.12 186.65 123.07 179.08 122.93 C 178.95 91.31 178.94 59.69 179.08 28.07 Z" />
<path fill="#0eab15" d=" M 245.01 29.01 C 253.34 28.99 261.66 28.99 269.99 29.01 C 270.01 60.67 270.01 92.33 269.99 123.99 C 261.66 124.01 253.34 124.01 245.01 123.99 C 244.99 92.33 244.99 60.67 245.01 29.01 Z" />
<path fill="#0eab15" d=" M 280.01 29.01 C 292.35 29.13 304.73 28.56 317.04 29.74 C 323.15 30.27 329.76 32.35 333.35 37.69 C 337.17 42.96 336.64 49.82 336.95 55.99 C 337.01 71.34 337.07 86.69 336.92 102.03 C 336.61 107.71 336.81 114.23 332.62 118.65 C 328.08 123.30 321.15 123.77 315.04 123.95 C 303.36 124.06 291.68 123.98 280.01 123.99 C 279.99 92.33 279.99 60.67 280.01 29.01 Z" />
<path fill="#a6a6a6" d=" M 125.66 49.66 C 132.99 43.84 143.15 43.04 152.04 44.90 C 159.55 46.41 166.59 51.57 168.96 59.05 C 171.63 67.39 171.03 76.29 170.92 84.92 C 161.31 85.23 151.69 84.77 142.08 85.08 C 142.31 93.35 140.91 101.89 143.19 109.96 C 144.97 109.85 147.42 110.23 148.11 108.06 C 149.80 102.24 148.62 96.05 149.07 90.08 C 156.35 89.91 163.64 89.91 170.93 90.08 C 171.08 95.20 171.25 100.37 170.36 105.44 C 168.78 114.31 161.48 122.04 152.45 123.37 C 143.23 124.86 132.69 124.00 125.30 117.74 C 119.98 113.13 118.17 105.86 118.08 99.08 C 117.92 89.36 117.98 79.64 118.03 69.93 C 118.17 62.63 119.65 54.49 125.66 49.66 Z" />
<path fill="#ffffff" d=" M 298.01 44.98 C 300.65 45.00 303.28 45.02 305.92 45.07 C 310.44 52.33 314.18 60.03 318.61 67.35 C 319.79 69.55 321.28 71.62 322.13 73.99 C 316.51 84.60 311.69 95.69 306.54 106.56 C 304.09 108.35 300.88 107.91 298.03 108.06 C 297.97 87.03 298.00 66.01 298.01 44.98 Z" />
<path fill="#ffffff" d=" M 142.58 58.49 C 143.69 58.33 144.79 58.17 145.90 58.01 C 147.43 62.87 147.13 68.00 146.91 73.00 C 145.30 73.01 143.70 73.00 142.09 73.00 C 141.83 68.16 141.79 63.29 142.58 58.49 Z" />
<path fill="#ffffff" d=" M 204.18 57.95 C 205.42 58.20 207.06 57.85 207.91 59.04 C 209.05 61.13 208.88 63.63 209.02 65.94 C 209.03 75.96 208.96 85.97 209.02 95.99 C 209.01 100.63 209.36 105.40 207.81 109.85 C 206.60 109.84 205.40 109.84 204.20 109.83 C 203.41 107.32 202.93 104.70 202.97 102.06 C 202.98 92.04 203.04 82.02 202.98 72.01 C 202.99 67.30 202.60 62.47 204.18 57.95 Z" />
</svg>
